%FSLAX46Y46*%
G04 Gerber Fmt 4.6, Leading zero omitted, Abs format (unit mm)*
G04 Created by KiCad (PCBNEW (2014-10-31 BZR 5243)-product) date Di 25 Nov 2014 02:27:44 CET*
%MOMM*%
G01*
G04 APERTURE LIST*
%ADD10C,0.100000*%
%ADD11R,1.600200X1.803400*%
%ADD12R,1.498600X1.300480*%
%ADD13R,0.800100X0.698500*%
%ADD14R,1.803400X1.600200*%
%ADD15R,1.300480X1.498600*%
%ADD16R,2.499360X1.800860*%
%ADD17R,0.599440X0.398780*%
%ADD18R,0.398780X0.599440*%
%ADD19R,1.524000X2.032000*%
%ADD20R,0.419100X1.168400*%
%ADD21R,2.794000X2.082800*%
%ADD22R,0.889000X1.397000*%
%ADD23R,1.500000X1.500000*%
%ADD24C,0.889000*%
%ADD25C,0.254000*%
%ADD26C,1.000000*%
%ADD27C,0.350000*%
%ADD28C,0.450000*%
%ADD29C,0.400000*%
%ADD30C,0.700000*%
G04 APERTURE END LIST*
D10*
D11*
X154813000Y-135509000D03*
X152019000Y-135509000D03*
D12*
X158750000Y-129730500D03*
X158750000Y-127825500D03*
D13*
X156423360Y-124587000D03*
X157520640Y-124587000D03*
D14*
X152146000Y-127508000D03*
X152146000Y-130302000D03*
D15*
X151955500Y-111379000D03*
X153860500Y-111379000D03*
D16*
X153824940Y-121881900D03*
X157822900Y-121881900D03*
D17*
X157734000Y-132011420D03*
X157734000Y-132910580D03*
D18*
X155389580Y-124587000D03*
X154490420Y-124587000D03*
X151823420Y-125603000D03*
X152722580Y-125603000D03*
X152204420Y-124333000D03*
X153103580Y-124333000D03*
D19*
X156083000Y-111252000D03*
X159385000Y-111252000D03*
D20*
X156809440Y-126271020D03*
X156159200Y-126271020D03*
X155498800Y-126271020D03*
X154848560Y-126271020D03*
X154848560Y-130268980D03*
X155498800Y-130268980D03*
X156159200Y-130268980D03*
X156809440Y-130268980D03*
D21*
X155829000Y-128270000D03*
D22*
X154495500Y-132461000D03*
X156400500Y-132461000D03*
D23*
X153162000Y-139446000D03*
X158242000Y-139446000D03*
X155702000Y-139446000D03*
D10*
G36*
X159220320Y-118153264D02*
X157523264Y-119850320D01*
X156250472Y-118577528D01*
X157947528Y-116880472D01*
X159220320Y-118153264D01*
X159220320Y-118153264D01*
G37*
G36*
X154977679Y-113910623D02*
X153280623Y-115607679D01*
X152007831Y-114334887D01*
X153704887Y-112637831D01*
X154977679Y-113910623D01*
X154977679Y-113910623D01*
G37*
D24*
X152019000Y-123063000D03*
X151511000Y-132715000D03*
X152908000Y-132588000D03*
X151003000Y-113665000D03*
X155702000Y-137668000D03*
D25*
X156786580Y-130291840D02*
X156809440Y-130268980D01*
D26*
X157988000Y-135255000D02*
X158623000Y-134620000D01*
D25*
X158211520Y-130268980D02*
X158750000Y-129730500D01*
X157734000Y-135509000D02*
X157988000Y-135255000D01*
D26*
X154813000Y-135509000D02*
X157734000Y-135509000D01*
X158242000Y-136017000D02*
X157734000Y-135509000D01*
X158242000Y-139446000D02*
X158242000Y-136017000D01*
D27*
X156809440Y-130268980D02*
X158211520Y-130268980D01*
X157734000Y-131193540D02*
X156809440Y-130268980D01*
X157734000Y-132011420D02*
X157734000Y-131193540D01*
D28*
X159004000Y-134239000D02*
X158623000Y-134620000D01*
X159004000Y-132461000D02*
X159004000Y-134239000D01*
X158554420Y-132011420D02*
X159004000Y-132461000D01*
D29*
X157734000Y-132011420D02*
X158554420Y-132011420D01*
D30*
X153824940Y-121881900D02*
X153824940Y-118369080D01*
X159385000Y-112809020D02*
X159385000Y-111252000D01*
X153824940Y-118369080D02*
X159385000Y-112809020D01*
D28*
X154490420Y-124587000D02*
X154490420Y-122547380D01*
X154490420Y-122547380D02*
X153824940Y-121881900D01*
X152019000Y-123063000D02*
X152643840Y-123063000D01*
X152643840Y-123063000D02*
X153824940Y-121881900D01*
D25*
X154559000Y-132265420D02*
X154559000Y-131826000D01*
D27*
X154490420Y-125407420D02*
X154490420Y-124587000D01*
X154848560Y-125765560D02*
X154490420Y-125407420D01*
D25*
X154848560Y-126271020D02*
X154848560Y-125765560D01*
X154490420Y-122326400D02*
X153830020Y-121666000D01*
X159385000Y-111252000D02*
X159385000Y-111633000D01*
X156273500Y-127825500D02*
X155829000Y-128270000D01*
D26*
X158750000Y-127825500D02*
X156273500Y-127825500D01*
D25*
X154848560Y-127289560D02*
X155829000Y-128270000D01*
D27*
X154848560Y-126271020D02*
X154848560Y-127289560D01*
X154236420Y-124333000D02*
X154490420Y-124587000D01*
X153103580Y-124333000D02*
X154236420Y-124333000D01*
D25*
X153830020Y-121666000D02*
X153416000Y-121666000D01*
D26*
X152019000Y-135509000D02*
X152019000Y-133223000D01*
D25*
X153035000Y-132461000D02*
X152908000Y-132588000D01*
D29*
X153035000Y-132461000D02*
X154495500Y-132461000D01*
D25*
X151638000Y-132588000D02*
X151511000Y-132715000D01*
D26*
X152908000Y-132588000D02*
X151638000Y-132588000D01*
D25*
X152019000Y-133223000D02*
X151511000Y-132715000D01*
D26*
X152273000Y-133223000D02*
X152908000Y-132588000D01*
D25*
X152019000Y-133223000D02*
X152273000Y-133223000D01*
D26*
X152019000Y-137668000D02*
X152019000Y-135509000D01*
X153162000Y-138811000D02*
X152019000Y-137668000D01*
X153162000Y-139446000D02*
X153162000Y-138811000D01*
D25*
X156159200Y-124851160D02*
X156423360Y-124587000D01*
D27*
X156159200Y-126271020D02*
X156159200Y-124851160D01*
D30*
X157735396Y-118365396D02*
X157735396Y-121794396D01*
D28*
X157735396Y-121794396D02*
X157822900Y-121881900D01*
X157520640Y-124587000D02*
X157520640Y-122184160D01*
X157520640Y-122184160D02*
X157822900Y-121881900D01*
X157735396Y-121573416D02*
X157827980Y-121666000D01*
D27*
X157520640Y-125308360D02*
X157520640Y-124587000D01*
X156809440Y-126019560D02*
X157520640Y-125308360D01*
D25*
X156809440Y-126271020D02*
X156809440Y-126019560D01*
X157520640Y-121973340D02*
X157827980Y-121666000D01*
D27*
X156159200Y-131521200D02*
X156159200Y-130268980D01*
X156400500Y-131762500D02*
X156159200Y-131521200D01*
X156400500Y-132461000D02*
X156400500Y-131762500D01*
D28*
X151955500Y-112712500D02*
X152082500Y-112712500D01*
X152082500Y-112712500D02*
X153492755Y-114122755D01*
X150876000Y-117475000D02*
X150876000Y-116739510D01*
X150876000Y-116739510D02*
X153492755Y-114122755D01*
D29*
X150876000Y-124968000D02*
X150876000Y-117475000D01*
X151511000Y-125603000D02*
X150876000Y-124968000D01*
X151823420Y-125603000D02*
X151511000Y-125603000D01*
D25*
X152146000Y-127508000D02*
X152146000Y-126873000D01*
D27*
X151823420Y-126931420D02*
X151823420Y-125603000D01*
D25*
X152146000Y-127254000D02*
X151823420Y-126931420D01*
X152146000Y-127508000D02*
X152146000Y-127254000D01*
X151955500Y-111379000D02*
X151955500Y-111950500D01*
D29*
X151955500Y-112712500D02*
X151955500Y-111379000D01*
X151003000Y-113665000D02*
X151955500Y-112712500D01*
D26*
X155702000Y-139446000D02*
X155702000Y-137668000D01*
D25*
X152179020Y-130268980D02*
X152146000Y-130302000D01*
D27*
X154848560Y-130268980D02*
X152179020Y-130268980D01*
X153543000Y-129032000D02*
X153543000Y-125984000D01*
X153543000Y-125984000D02*
X153162000Y-125603000D01*
X153162000Y-125603000D02*
X152722580Y-125603000D01*
X152273000Y-130302000D02*
X153543000Y-129032000D01*
D25*
X152146000Y-130302000D02*
X152273000Y-130302000D01*
X152722580Y-125163580D02*
X152204420Y-124645420D01*
X152204420Y-124645420D02*
X152204420Y-124333000D01*
X152722580Y-125603000D02*
X152722580Y-125163580D01*
X155956000Y-111379000D02*
X156083000Y-111252000D01*
D27*
X153860500Y-111379000D02*
X155956000Y-111379000D01*
D29*
X155498800Y-133781800D02*
X155702000Y-133985000D01*
X155702000Y-133985000D02*
X157353000Y-133985000D01*
X157353000Y-133985000D02*
X157734000Y-133604000D01*
X157734000Y-133604000D02*
X157734000Y-132910580D01*
D27*
X155498800Y-130268980D02*
X155498800Y-133781800D01*
D25*
X155498800Y-124696220D02*
X155389580Y-124587000D01*
D27*
X155498800Y-126271020D02*
X155498800Y-124696220D01*
M02*
