%FSLAX46Y46*%
G04 Gerber Fmt 4.6, Leading zero omitted, Abs format (unit mm)*
G04 Created by KiCad (PCBNEW (2014-10-31 BZR 5243)-product) date Di 25 Nov 2014 02:27:44 CET*
%MOMM*%
G01*
G04 APERTURE LIST*
%ADD10C,0.100000*%
%ADD11C,0.127000*%
%ADD12C,0.381000*%
%ADD13C,0.071120*%
%ADD14C,0.152400*%
%ADD15C,0.203200*%
%ADD16C,0.099060*%
%ADD17C,0.150000*%
%ADD18C,0.119380*%
%ADD19C,0.060960*%
%ADD20C,0.030480*%
%ADD21C,0.304800*%
%ADD22C,0.109220*%
G04 APERTURE END LIST*
D10*
D11*
X154559000Y-136321800D02*
X154559000Y-134696200D01*
X152273000Y-134696200D02*
X152273000Y-136321800D01*
X151815800Y-134696200D02*
X151815800Y-136321800D01*
X151815800Y-136321800D02*
X155016200Y-136321800D01*
X155016200Y-136321800D02*
X155016200Y-134696200D01*
X155016200Y-134696200D02*
X151815800Y-134696200D01*
X159385000Y-129413000D02*
X158115000Y-129413000D01*
X159385000Y-128143000D02*
X158140400Y-128143000D01*
X159385000Y-127762000D02*
X159385000Y-129794000D01*
X159385000Y-129794000D02*
X158115000Y-129794000D01*
X158115000Y-129794000D02*
X158115000Y-127762000D01*
X158115000Y-127762000D02*
X159385000Y-127762000D01*
X156641800Y-124866400D02*
X156641800Y-124307600D01*
X157302200Y-124866400D02*
X157302200Y-124307600D01*
X157505400Y-124866400D02*
X157505400Y-124307600D01*
X157505400Y-124307600D02*
X156438600Y-124307600D01*
X156438600Y-124307600D02*
X156438600Y-124866400D01*
X156438600Y-124866400D02*
X157505400Y-124866400D01*
X152958800Y-127762000D02*
X151333200Y-127762000D01*
X151333200Y-130048000D02*
X152958800Y-130048000D01*
X151333200Y-130505200D02*
X152958800Y-130505200D01*
X152958800Y-130505200D02*
X152958800Y-127304800D01*
X152958800Y-127304800D02*
X151333200Y-127304800D01*
X151333200Y-127304800D02*
X151333200Y-130505200D01*
X152273000Y-112014000D02*
X152273000Y-110744000D01*
X153543000Y-112014000D02*
X153543000Y-110769400D01*
X153924000Y-112014000D02*
X151892000Y-112014000D01*
X151892000Y-112014000D02*
X151892000Y-110744000D01*
X151892000Y-110744000D02*
X153924000Y-110744000D01*
X153924000Y-110744000D02*
X153924000Y-112014000D01*
D12*
X157624780Y-123631960D02*
X157624780Y-123281440D01*
X157624780Y-120131840D02*
X157624780Y-120482360D01*
X158074360Y-123631960D02*
X158074360Y-123281440D01*
X153573480Y-123631960D02*
X153573480Y-123281440D01*
X153573480Y-120131840D02*
X153573480Y-120482360D01*
X158074360Y-120131840D02*
X158074360Y-120482360D01*
X153573480Y-123631960D02*
X158074360Y-123631960D01*
X153573480Y-120131840D02*
X158074360Y-120131840D01*
D13*
X158115000Y-132207000D02*
X158115000Y-131699000D01*
X158115000Y-131699000D02*
X157353000Y-131699000D01*
X157353000Y-131699000D02*
X157353000Y-132207000D01*
X158115000Y-132715000D02*
X158115000Y-133223000D01*
X158115000Y-133223000D02*
X157353000Y-133223000D01*
X157353000Y-133223000D02*
X157353000Y-132715000D01*
X155194000Y-124968000D02*
X155702000Y-124968000D01*
X155702000Y-124968000D02*
X155702000Y-124206000D01*
X155702000Y-124206000D02*
X155194000Y-124206000D01*
X154686000Y-124968000D02*
X154178000Y-124968000D01*
X154178000Y-124968000D02*
X154178000Y-124206000D01*
X154178000Y-124206000D02*
X154686000Y-124206000D01*
X152019000Y-125222000D02*
X151511000Y-125222000D01*
X151511000Y-125222000D02*
X151511000Y-125984000D01*
X151511000Y-125984000D02*
X152019000Y-125984000D01*
X152527000Y-125222000D02*
X153035000Y-125222000D01*
X153035000Y-125222000D02*
X153035000Y-125984000D01*
X153035000Y-125984000D02*
X152527000Y-125984000D01*
X152400000Y-123952000D02*
X151892000Y-123952000D01*
X151892000Y-123952000D02*
X151892000Y-124714000D01*
X151892000Y-124714000D02*
X152400000Y-124714000D01*
X152908000Y-123952000D02*
X153416000Y-123952000D01*
X153416000Y-123952000D02*
X153416000Y-124714000D01*
X153416000Y-124714000D02*
X152908000Y-124714000D01*
D11*
X155194000Y-110109000D02*
X155194000Y-112395000D01*
X155194000Y-112395000D02*
X156845000Y-112395000D01*
X158623000Y-110109000D02*
X160274000Y-110109000D01*
X160274000Y-110109000D02*
X160274000Y-112395000D01*
X160274000Y-112395000D02*
X158623000Y-112395000D01*
X156845000Y-110109000D02*
X155194000Y-110109000D01*
D14*
X157045805Y-127317500D02*
G75*
G03X157045805Y-127317500I-200805J0D01*
G01*
D15*
X155829000Y-129819400D02*
X157378400Y-129819400D01*
X157378400Y-129819400D02*
X157378400Y-126720600D01*
X157378400Y-126720600D02*
X154279600Y-126720600D01*
X154279600Y-126720600D02*
X154279600Y-129819400D01*
X154279600Y-129819400D02*
X155829000Y-129819400D01*
D16*
X153924000Y-133223000D02*
G75*
G03X153924000Y-133223000I-127000J0D01*
G01*
X154940000Y-133223000D02*
X153924000Y-133223000D01*
X153924000Y-133223000D02*
X153924000Y-131699000D01*
X153924000Y-131699000D02*
X154940000Y-131699000D01*
X155956000Y-131699000D02*
X156972000Y-131699000D01*
X156972000Y-131699000D02*
X156972000Y-133223000D01*
X156972000Y-133223000D02*
X155956000Y-133223000D01*
D17*
X152262000Y-140346000D02*
X152262000Y-138546000D01*
X152262000Y-138546000D02*
X154062000Y-138546000D01*
X154062000Y-138546000D02*
X154062000Y-140346000D01*
X154062000Y-140346000D02*
X152262000Y-140346000D01*
X157342000Y-140346000D02*
X157342000Y-138546000D01*
X157342000Y-138546000D02*
X159142000Y-138546000D01*
X159142000Y-138546000D02*
X159142000Y-140346000D01*
X159142000Y-140346000D02*
X157342000Y-140346000D01*
X154802000Y-140346000D02*
X154802000Y-138546000D01*
X154802000Y-138546000D02*
X156602000Y-138546000D01*
X156602000Y-138546000D02*
X156602000Y-140346000D01*
X156602000Y-140346000D02*
X154802000Y-140346000D01*
X159220320Y-119850320D02*
X159220320Y-112779253D01*
X159220320Y-112779253D02*
X152149253Y-112779253D01*
X152149253Y-112779253D02*
X152149253Y-119850320D01*
X152149253Y-119850320D02*
X159220320Y-119850320D01*
D18*
X153316604Y-134178707D02*
X153292776Y-134202535D01*
X153221293Y-134226362D01*
X153173638Y-134226362D01*
X153102155Y-134202535D01*
X153054500Y-134154880D01*
X153030672Y-134107224D01*
X153006844Y-134011914D01*
X153006844Y-133940431D01*
X153030672Y-133845120D01*
X153054500Y-133797465D01*
X153102155Y-133749810D01*
X153173638Y-133725982D01*
X153221293Y-133725982D01*
X153292776Y-133749810D01*
X153316604Y-133773638D01*
X153793156Y-134226362D02*
X153507224Y-134226362D01*
X153650190Y-134226362D02*
X153650190Y-133725982D01*
X153602535Y-133797465D01*
X153554880Y-133845120D01*
X153507224Y-133868948D01*
D19*
X159847643Y-128827954D02*
X159861915Y-128842226D01*
X159876188Y-128885043D01*
X159876188Y-128913588D01*
X159861915Y-128956405D01*
X159833370Y-128984950D01*
X159804826Y-128999222D01*
X159747736Y-129013494D01*
X159704919Y-129013494D01*
X159647830Y-128999222D01*
X159619285Y-128984950D01*
X159590740Y-128956405D01*
X159576468Y-128913588D01*
X159576468Y-128885043D01*
X159590740Y-128842226D01*
X159605012Y-128827954D01*
X159605012Y-128713774D02*
X159590740Y-128699502D01*
X159576468Y-128670957D01*
X159576468Y-128599595D01*
X159590740Y-128571051D01*
X159605012Y-128556778D01*
X159633557Y-128542506D01*
X159662102Y-128542506D01*
X159704919Y-128556778D01*
X159876188Y-128728047D01*
X159876188Y-128542506D01*
D20*
X156946600Y-125124029D02*
X156939343Y-125131286D01*
X156917572Y-125138543D01*
X156903058Y-125138543D01*
X156881286Y-125131286D01*
X156866772Y-125116771D01*
X156859515Y-125102257D01*
X156852258Y-125073229D01*
X156852258Y-125051457D01*
X156859515Y-125022429D01*
X156866772Y-125007914D01*
X156881286Y-124993400D01*
X156903058Y-124986143D01*
X156917572Y-124986143D01*
X156939343Y-124993400D01*
X156946600Y-125000657D01*
X156997400Y-124986143D02*
X157091743Y-124986143D01*
X157040943Y-125044200D01*
X157062715Y-125044200D01*
X157077229Y-125051457D01*
X157084486Y-125058714D01*
X157091743Y-125073229D01*
X157091743Y-125109514D01*
X157084486Y-125124029D01*
X157077229Y-125131286D01*
X157062715Y-125138543D01*
X157019172Y-125138543D01*
X157004658Y-125131286D01*
X156997400Y-125124029D01*
D18*
X151029307Y-128962996D02*
X151053135Y-128986824D01*
X151076962Y-129058307D01*
X151076962Y-129105962D01*
X151053135Y-129177445D01*
X151005480Y-129225100D01*
X150957824Y-129248928D01*
X150862514Y-129272756D01*
X150791031Y-129272756D01*
X150695720Y-129248928D01*
X150648065Y-129225100D01*
X150600410Y-129177445D01*
X150576582Y-129105962D01*
X150576582Y-129058307D01*
X150600410Y-128986824D01*
X150624238Y-128962996D01*
X150576582Y-128510272D02*
X150576582Y-128748548D01*
X150814859Y-128772376D01*
X150791031Y-128748548D01*
X150767203Y-128700893D01*
X150767203Y-128581755D01*
X150791031Y-128534099D01*
X150814859Y-128510272D01*
X150862514Y-128486444D01*
X150981652Y-128486444D01*
X151029307Y-128510272D01*
X151053135Y-128534099D01*
X151076962Y-128581755D01*
X151076962Y-128700893D01*
X151053135Y-128748548D01*
X151029307Y-128772376D01*
D19*
X152858046Y-112476643D02*
X152843774Y-112490915D01*
X152800957Y-112505188D01*
X152772412Y-112505188D01*
X152729595Y-112490915D01*
X152701050Y-112462370D01*
X152686778Y-112433826D01*
X152672506Y-112376736D01*
X152672506Y-112333919D01*
X152686778Y-112276830D01*
X152701050Y-112248285D01*
X152729595Y-112219740D01*
X152772412Y-112205468D01*
X152800957Y-112205468D01*
X152843774Y-112219740D01*
X152858046Y-112234012D01*
X153114949Y-112205468D02*
X153057860Y-112205468D01*
X153029315Y-112219740D01*
X153015043Y-112234012D01*
X152986498Y-112276830D01*
X152972226Y-112333919D01*
X152972226Y-112448098D01*
X152986498Y-112476643D01*
X153000770Y-112490915D01*
X153029315Y-112505188D01*
X153086405Y-112505188D01*
X153114949Y-112490915D01*
X153129222Y-112476643D01*
X153143494Y-112448098D01*
X153143494Y-112376736D01*
X153129222Y-112348191D01*
X153114949Y-112333919D01*
X153086405Y-112319647D01*
X153029315Y-112319647D01*
X153000770Y-112333919D01*
X152986498Y-112348191D01*
X152972226Y-112376736D01*
D21*
X151989429Y-122374857D02*
X150465429Y-122374857D01*
X150465429Y-122012000D01*
X150538000Y-121794285D01*
X150683143Y-121649143D01*
X150828286Y-121576571D01*
X151118571Y-121504000D01*
X151336286Y-121504000D01*
X151626571Y-121576571D01*
X151771714Y-121649143D01*
X151916857Y-121794285D01*
X151989429Y-122012000D01*
X151989429Y-122374857D01*
X151989429Y-120052571D02*
X151989429Y-120923428D01*
X151989429Y-120488000D02*
X150465429Y-120488000D01*
X150683143Y-120633143D01*
X150828286Y-120778285D01*
X150900857Y-120923428D01*
D16*
X152405322Y-123565497D02*
X152643599Y-123565497D01*
X152357667Y-123708462D02*
X152524461Y-123208082D01*
X152691254Y-123708462D01*
X158692608Y-123807522D02*
X158692608Y-123307142D01*
X158978540Y-123807522D02*
X158764091Y-123521591D01*
X158978540Y-123307142D02*
X158692608Y-123593074D01*
D13*
X158658569Y-132550800D02*
X158491654Y-132652400D01*
X158658569Y-132724972D02*
X158308049Y-132724972D01*
X158308049Y-132608857D01*
X158324740Y-132579829D01*
X158341431Y-132565314D01*
X158374814Y-132550800D01*
X158424889Y-132550800D01*
X158458271Y-132565314D01*
X158474963Y-132579829D01*
X158491654Y-132608857D01*
X158491654Y-132724972D01*
X158658569Y-132260514D02*
X158658569Y-132434686D01*
X158658569Y-132347600D02*
X158308049Y-132347600D01*
X158358123Y-132376629D01*
X158391506Y-132405657D01*
X158408197Y-132434686D01*
X154899200Y-125458569D02*
X154797600Y-125291654D01*
X154725028Y-125458569D02*
X154725028Y-125108049D01*
X154841143Y-125108049D01*
X154870171Y-125124740D01*
X154884686Y-125141431D01*
X154899200Y-125174814D01*
X154899200Y-125224889D01*
X154884686Y-125258271D01*
X154870171Y-125274963D01*
X154841143Y-125291654D01*
X154725028Y-125291654D01*
X155015314Y-125141431D02*
X155029828Y-125124740D01*
X155058857Y-125108049D01*
X155131428Y-125108049D01*
X155160457Y-125124740D01*
X155174971Y-125141431D01*
X155189486Y-125174814D01*
X155189486Y-125208197D01*
X155174971Y-125258271D01*
X155000800Y-125458569D01*
X155189486Y-125458569D01*
X152199200Y-126408569D02*
X152097600Y-126241654D01*
X152025028Y-126408569D02*
X152025028Y-126058049D01*
X152141143Y-126058049D01*
X152170171Y-126074740D01*
X152184686Y-126091431D01*
X152199200Y-126124814D01*
X152199200Y-126174889D01*
X152184686Y-126208271D01*
X152170171Y-126224963D01*
X152141143Y-126241654D01*
X152025028Y-126241654D01*
X152300800Y-126058049D02*
X152489486Y-126058049D01*
X152387886Y-126191580D01*
X152431428Y-126191580D01*
X152460457Y-126208271D01*
X152474971Y-126224963D01*
X152489486Y-126258346D01*
X152489486Y-126341803D01*
X152474971Y-126375186D01*
X152460457Y-126391877D01*
X152431428Y-126408569D01*
X152344343Y-126408569D01*
X152315314Y-126391877D01*
X152300800Y-126375186D01*
X151758569Y-124350800D02*
X151591654Y-124452400D01*
X151758569Y-124524972D02*
X151408049Y-124524972D01*
X151408049Y-124408857D01*
X151424740Y-124379829D01*
X151441431Y-124365314D01*
X151474814Y-124350800D01*
X151524889Y-124350800D01*
X151558271Y-124365314D01*
X151574963Y-124379829D01*
X151591654Y-124408857D01*
X151591654Y-124524972D01*
X151524889Y-124089543D02*
X151758569Y-124089543D01*
X151391357Y-124162114D02*
X151641729Y-124234686D01*
X151641729Y-124046000D01*
D11*
X157607000Y-111596714D02*
X157353000Y-111233857D01*
X157171572Y-111596714D02*
X157171572Y-110834714D01*
X157461857Y-110834714D01*
X157534429Y-110871000D01*
X157570714Y-110907286D01*
X157607000Y-110979857D01*
X157607000Y-111088714D01*
X157570714Y-111161286D01*
X157534429Y-111197571D01*
X157461857Y-111233857D01*
X157171572Y-111233857D01*
X158296429Y-110834714D02*
X157933572Y-110834714D01*
X157897286Y-111197571D01*
X157933572Y-111161286D01*
X158006143Y-111125000D01*
X158187572Y-111125000D01*
X158260143Y-111161286D01*
X158296429Y-111197571D01*
X158332714Y-111270143D01*
X158332714Y-111451571D01*
X158296429Y-111524143D01*
X158260143Y-111560429D01*
X158187572Y-111596714D01*
X158006143Y-111596714D01*
X157933572Y-111560429D01*
X157897286Y-111524143D01*
X155441952Y-128487714D02*
X155441952Y-129104571D01*
X155466143Y-129177143D01*
X155490333Y-129213429D01*
X155538714Y-129249714D01*
X155635476Y-129249714D01*
X155683857Y-129213429D01*
X155708048Y-129177143D01*
X155732238Y-129104571D01*
X155732238Y-128487714D01*
X156240238Y-129249714D02*
X155949952Y-129249714D01*
X156095095Y-129249714D02*
X156095095Y-128487714D01*
X156046714Y-128596571D01*
X155998333Y-128669143D01*
X155949952Y-128705429D01*
D14*
D22*
X155366604Y-134028707D02*
X155342776Y-134052535D01*
X155271293Y-134076362D01*
X155223638Y-134076362D01*
X155152155Y-134052535D01*
X155104500Y-134004880D01*
X155080672Y-133957224D01*
X155056844Y-133861914D01*
X155056844Y-133790431D01*
X155080672Y-133695120D01*
X155104500Y-133647465D01*
X155152155Y-133599810D01*
X155223638Y-133575982D01*
X155271293Y-133575982D01*
X155342776Y-133599810D01*
X155366604Y-133623638D01*
X155795501Y-133742776D02*
X155795501Y-134076362D01*
X155676363Y-133552155D02*
X155557224Y-133909569D01*
X155866984Y-133909569D01*
D17*
X152216666Y-137528571D02*
X152216666Y-138176190D01*
X152178571Y-138252381D01*
X152140476Y-138290476D01*
X152064285Y-138328571D01*
X151950000Y-138328571D01*
X151873809Y-138290476D01*
X152216666Y-138023810D02*
X152140476Y-138061905D01*
X151988095Y-138061905D01*
X151911904Y-138023810D01*
X151873809Y-137985714D01*
X151835714Y-137909524D01*
X151835714Y-137680952D01*
X151873809Y-137604762D01*
X151911904Y-137566667D01*
X151988095Y-137528571D01*
X152140476Y-137528571D01*
X152216666Y-137566667D01*
X152597619Y-137528571D02*
X152597619Y-138061905D01*
X152597619Y-137604762D02*
X152635714Y-137566667D01*
X152711905Y-137528571D01*
X152826191Y-137528571D01*
X152902381Y-137566667D01*
X152940476Y-137642857D01*
X152940476Y-138061905D01*
X153664286Y-138061905D02*
X153664286Y-137261905D01*
X153664286Y-138023810D02*
X153588096Y-138061905D01*
X153435715Y-138061905D01*
X153359524Y-138023810D01*
X153321429Y-137985714D01*
X153283334Y-137909524D01*
X153283334Y-137680952D01*
X153321429Y-137604762D01*
X153359524Y-137566667D01*
X153435715Y-137528571D01*
X153588096Y-137528571D01*
X153664286Y-137566667D01*
X154464287Y-138061905D02*
X154007144Y-138061905D01*
X154235715Y-138061905D02*
X154235715Y-137261905D01*
X154159525Y-137376190D01*
X154083334Y-137452381D01*
X154007144Y-137490476D01*
X157507143Y-138061905D02*
X157507143Y-137528571D01*
X157507143Y-137261905D02*
X157469048Y-137300000D01*
X157507143Y-137338095D01*
X157545238Y-137300000D01*
X157507143Y-137261905D01*
X157507143Y-137338095D01*
X157888095Y-137528571D02*
X157888095Y-138061905D01*
X157888095Y-137604762D02*
X157926190Y-137566667D01*
X158002381Y-137528571D01*
X158116667Y-137528571D01*
X158192857Y-137566667D01*
X158230952Y-137642857D01*
X158230952Y-138061905D01*
X159030953Y-138061905D02*
X158573810Y-138061905D01*
X158802381Y-138061905D02*
X158802381Y-137261905D01*
X158726191Y-137376190D01*
X158650000Y-137452381D01*
X158573810Y-137490476D01*
X154671428Y-137111905D02*
X154595237Y-137073810D01*
X154557142Y-137035714D01*
X154519047Y-136959524D01*
X154519047Y-136730952D01*
X154557142Y-136654762D01*
X154595237Y-136616667D01*
X154671428Y-136578571D01*
X154785714Y-136578571D01*
X154861904Y-136616667D01*
X154899999Y-136654762D01*
X154938095Y-136730952D01*
X154938095Y-136959524D01*
X154899999Y-137035714D01*
X154861904Y-137073810D01*
X154785714Y-137111905D01*
X154671428Y-137111905D01*
X155623809Y-136578571D02*
X155623809Y-137111905D01*
X155280952Y-136578571D02*
X155280952Y-136997619D01*
X155319047Y-137073810D01*
X155395238Y-137111905D01*
X155509524Y-137111905D01*
X155585714Y-137073810D01*
X155623809Y-137035714D01*
X155890476Y-136578571D02*
X156195238Y-136578571D01*
X156004762Y-136311905D02*
X156004762Y-136997619D01*
X156042857Y-137073810D01*
X156119048Y-137111905D01*
X156195238Y-137111905D01*
X156880953Y-137111905D02*
X156423810Y-137111905D01*
X156652381Y-137111905D02*
X156652381Y-136311905D01*
X156576191Y-136426190D01*
X156500000Y-136502381D01*
X156423810Y-136540476D01*
X155212268Y-116152031D02*
X154875550Y-115815313D01*
X155582657Y-115108206D01*
X155818359Y-116758123D02*
X155414298Y-116354061D01*
X155616328Y-116556092D02*
X156323435Y-115848985D01*
X156155076Y-115882657D01*
X156020390Y-115882657D01*
X155919374Y-115848985D01*
M02*
