%FSLAX46Y46*%
G04 Gerber Fmt 4.6, Leading zero omitted, Abs format (unit mm)*
G04 Created by KiCad (PCBNEW (2014-10-31 BZR 5243)-product) date Di 25 Nov 2014 02:27:44 CET*
%MOMM*%
G01*
G04 APERTURE LIST*
%ADD10C,0.100000*%
%ADD11R,1.500000X1.500000*%
%ADD12C,0.889000*%
%ADD13C,1.000000*%
%ADD14C,0.330200*%
G04 APERTURE END LIST*
D10*
D11*
X153162000Y-139446000D03*
X158242000Y-139446000D03*
X155702000Y-139446000D03*
D12*
X152019000Y-123063000D03*
X151511000Y-132715000D03*
X152908000Y-132588000D03*
X151003000Y-113665000D03*
X155702000Y-137668000D03*
D13*
X153162000Y-132842000D02*
X152908000Y-132588000D01*
X153162000Y-139446000D02*
X153162000Y-132842000D01*
X151003000Y-110998000D02*
X151003000Y-113665000D01*
X151892000Y-110109000D02*
X151003000Y-110998000D01*
X157988000Y-110109000D02*
X151892000Y-110109000D01*
X160274000Y-112395000D02*
X157988000Y-110109000D01*
X160274000Y-136525000D02*
X160274000Y-112395000D01*
X159512000Y-137287000D02*
X160274000Y-136525000D01*
X156083000Y-137287000D02*
X159512000Y-137287000D01*
X155702000Y-137668000D02*
X156083000Y-137287000D01*
X155702000Y-139446000D02*
X155702000Y-137668000D01*
D14*
G36*
X159126300Y-136049607D02*
X159036607Y-136139300D01*
X156083000Y-136139300D01*
X155643794Y-136226663D01*
X155271453Y-136475454D01*
X155006007Y-136740900D01*
X150572700Y-136740900D01*
X150572700Y-114727108D01*
X151003000Y-114812700D01*
X151442206Y-114725337D01*
X151814546Y-114476546D01*
X152063337Y-114104206D01*
X152150700Y-113665000D01*
X152150700Y-111473392D01*
X152367392Y-111256700D01*
X157512607Y-111256700D01*
X159126300Y-112870392D01*
X159126300Y-136049607D01*
X159126300Y-136049607D01*
G37*
X159126300Y-136049607D02*
X159036607Y-136139300D01*
X156083000Y-136139300D01*
X155643794Y-136226663D01*
X155271453Y-136475454D01*
X155006007Y-136740900D01*
X150572700Y-136740900D01*
X150572700Y-114727108D01*
X151003000Y-114812700D01*
X151442206Y-114725337D01*
X151814546Y-114476546D01*
X152063337Y-114104206D01*
X152150700Y-113665000D01*
X152150700Y-111473392D01*
X152367392Y-111256700D01*
X157512607Y-111256700D01*
X159126300Y-112870392D01*
X159126300Y-136049607D01*
M02*
